<svg width="1024" height="1024" viewBox="0 0 1024 1024" fill="none" xmlns="http://www.w3.org/2000/svg">
<path d="M480.597 94.0798C441.615 81.0729 399.249 82.5684 361.281 98.2917C323.313 114.015 292.293 142.91 273.92 179.669L103.253 521.003C84.6515 558.209 80.2783 600.928 90.9558 641.131C101.633 681.335 126.626 716.254 161.237 739.328L417.237 909.994C445.274 928.688 478.217 938.664 511.915 938.664C545.612 938.664 578.555 928.688 606.592 909.994L862.592 739.328C893.734 718.563 917.186 688.136 929.337 652.733C941.487 617.33 941.662 578.915 929.835 543.403L844.501 287.403C836.123 262.265 822.007 239.423 803.27 220.687C784.534 201.95 761.693 187.834 736.555 179.456L480.597 94.0798Z" stroke="white" stroke-width="70" stroke-linecap="round" stroke-linejoin="round"/>
<path d="M511.573 938.667L597.333 512L931.072 647.851" stroke="white" stroke-width="70" stroke-linecap="round" stroke-linejoin="round"/>
<path d="M597.333 512L361.387 98.2188" stroke="white" stroke-width="70" stroke-linecap="round" stroke-linejoin="round"/>
<path d="M511.733 391L101.628 633.281" stroke="white" stroke-width="70" stroke-linecap="round" stroke-linejoin="round"/>
</svg>
